<svg xmlns="http://www.w3.org/2000/svg" width="1080" height="1215" viewBox="0 0 1080 1215" font-family="'Noto Sans TC','PingFang TC','Microsoft JhengHei',sans-serif">
  <defs>
    <pattern id="mapTex" width="30" height="30" patternUnits="userSpaceOnUse">
      <rect width="30" height="30" fill="#E8EDE6"/>
      <path d="M0 20 H30 M20 0 V30" stroke="#D6DED3" stroke-width="1.2" fill="none"/>
    </pattern>
    <pattern id="mapTexBlur" width="30" height="30" patternUnits="userSpaceOnUse">
      <rect width="30" height="30" fill="#EEF1EC"/>
      <path d="M0 20 H30 M20 0 V30" stroke="#E4E9E2" stroke-width="2.2" fill="none"/>
    </pattern>
    <pattern id="hz" width="7" height="7" patternUnits="userSpaceOnUse" patternTransform="rotate(45)">
      <rect width="7" height="7" fill="#C13515" fill-opacity="0.13"/>
      <rect width="2.6" height="7" fill="#C13515" fill-opacity="0.4"/>
    </pattern>
    <pattern id="waste" width="7" height="7" patternUnits="userSpaceOnUse" patternTransform="rotate(-45)">
      <rect width="7" height="7" fill="#F48C06" fill-opacity="0.12"/>
      <rect width="2.6" height="7" fill="#F48C06" fill-opacity="0.38"/>
    </pattern>
    <clipPath id="b1"><rect x="60" y="140" width="240" height="460" rx="22"/></clipPath>
    <clipPath id="b2"><rect x="400" y="140" width="240" height="460" rx="22"/></clipPath>
    <clipPath id="b3"><rect x="740" y="140" width="240" height="460" rx="22"/></clipPath>
    <clipPath id="a1"><rect x="60" y="700" width="240" height="460" rx="22"/></clipPath>
    <clipPath id="a2"><rect x="400" y="700" width="240" height="460" rx="22"/></clipPath>
    <clipPath id="a3"><rect x="740" y="700" width="240" height="460" rx="22"/></clipPath>
  </defs>

  <rect width="1080" height="1215" fill="#FFFBF5"/>

  <text x="48" y="46" font-size="23" font-weight="700" fill="#2A1F18">行程 · 地圖 · 收藏：三個 root tab 並排</text>
  <text x="48" y="72" font-size="13" fill="#6F5A47">「每頁風格不一致」的實證與結果。依 tokens.dart 與程式碼數值繪製的規格圖（非真機截圖）。</text>

  <!-- ============ BEFORE ============ -->
  <rect x="48" y="92" width="112" height="24" rx="12" fill="#FDECEC"/>
  <text x="104" y="109" font-size="13" font-weight="700" fill="#C13515" text-anchor="middle">修正前</text>
  <text x="176" y="109" font-size="12.5" fill="#6F5A47">三頁三種頁首、三種底部淨空 —— 兩處直接破版，一處白白浪費空間</text>

  <text x="60" y="134" font-size="12" font-weight="600" fill="#2A1F18">行程</text>
  <text x="400" y="134" font-size="12" font-weight="600" fill="#2A1F18">地圖</text>
  <text x="740" y="134" font-size="12" font-weight="600" fill="#2A1F18">收藏</text>

  <!-- B1 行程 before：large title + inset 16 破版 -->
  <g clip-path="url(#b1)">
    <rect x="60" y="140" width="240" height="460" fill="#FFFBF5"/>
    <rect x="60" y="140" width="240" height="78" fill="#FFF6EA"/>
    <text x="284" y="164" font-size="13" fill="#A97A4A" text-anchor="end">＋ ⋯</text>
    <text x="74" y="206" font-size="22" font-weight="700" fill="#2A1F18">我的行程</text>
    <path d="M60 218 H300" stroke="#EADFCF" stroke-width="1"/>
    <rect x="74" y="228" width="212" height="24" rx="7" fill="#FAF4EA" stroke="#EADFCF"/>
    <text x="86" y="244" font-size="9" fill="#6F5A47">搜尋行程</text>
    <rect x="74" y="262" width="212" height="56" rx="8" fill="#FAF4EA" stroke="#EADFCF"/>
    <text x="86" y="292" font-size="11" font-weight="700" fill="#2A1F18">沖繩家族之旅</text>
    <rect x="74" y="328" width="212" height="56" rx="8" fill="#FAF4EA" stroke="#EADFCF"/>
    <text x="86" y="358" font-size="11" font-weight="700" fill="#2A1F18">京都紅葉</text>
    <rect x="74" y="394" width="212" height="56" rx="8" fill="#FAF4EA" stroke="#EADFCF"/>
    <text x="86" y="424" font-size="11" font-weight="700" fill="#2A1F18">釜山美食團</text>
    <rect x="74" y="460" width="212" height="56" rx="8" fill="#FAF4EA" stroke="#EADFCF"/>
    <text x="86" y="490" font-size="11" font-weight="700" fill="#2A1F18">北海道滑雪</text>
    <rect x="74" y="526" width="212" height="56" rx="8" fill="#FAF4EA" stroke="#EADFCF"/>
    <text x="86" y="556" font-size="11" font-weight="700" fill="#2A1F18">台南小吃</text>
    <rect x="60" y="530" width="240" height="70" fill="url(#hz)"/>
    <rect x="70" y="536" width="220" height="36" rx="18" fill="#FFFFFF" fill-opacity="0.92" stroke="#FFFFFF"/>
    <g font-size="7" text-anchor="middle" fill="#6F5A47">
      <text x="92" y="558">聊天</text><text x="136" y="558" fill="#A97A4A" font-weight="700">行程</text>
      <text x="180" y="558">地圖</text><text x="224" y="558">收藏</text><text x="268" y="558">帳號</text>
    </g>
  </g>
  <rect x="60" y="140" width="240" height="460" rx="22" fill="none" stroke="#2A1F18" stroke-width="2"/>

  <!-- B2 地圖 before：無 inset 破版 -->
  <g clip-path="url(#b2)">
    <rect x="400" y="140" width="240" height="460" fill="#FFFBF5"/>
    <rect x="400" y="140" width="240" height="34" fill="#FFFBF5"/>
    <text x="416" y="162" font-size="11" font-weight="700" fill="#2A1F18">沖繩家族旅行</text>
    <path d="M400 174 H640" stroke="#EADFCF" stroke-width="1"/>
    <rect x="400" y="174" width="240" height="34" fill="#FFFBF5"/>
    <rect x="412" y="181" width="42" height="20" rx="10" fill="#A97A4A"/>
    <text x="433" y="195" font-size="8" font-weight="600" fill="#FFFFFF" text-anchor="middle">總覽</text>
    <rect x="460" y="181" width="56" height="20" rx="10" fill="none" stroke="#EADFCF"/>
    <text x="490" y="195" font-size="8" font-weight="600" fill="#2A1F18" text-anchor="middle">DAY 01</text>
    <rect x="522" y="181" width="56" height="20" rx="10" fill="none" stroke="#EADFCF"/>
    <text x="552" y="195" font-size="8" font-weight="600" fill="#2A1F18" text-anchor="middle">DAY 02</text>
    <path d="M400 208 H640" stroke="#EADFCF" stroke-width="1"/>
    <!-- 地圖被上下夾住 -->
    <rect x="400" y="208" width="240" height="288" fill="url(#mapTex)"/>
    <circle cx="480" cy="290" r="11" fill="#EF4444" stroke="#FFFFFF" stroke-width="2"/>
    <text x="480" y="294" font-size="9" font-weight="700" fill="#FFFFFF" text-anchor="middle">1</text>
    <circle cx="560" cy="380" r="11" fill="#EF4444" stroke="#FFFFFF" stroke-width="2"/>
    <text x="560" y="384" font-size="9" font-weight="700" fill="#FFFFFF" text-anchor="middle">2</text>
    <path d="M480 290 Q525 320 560 380" stroke="#EF4444" stroke-width="3" fill="none"/>
    <!-- POI 卡貼底 -->
    <rect x="400" y="496" width="240" height="104" fill="#FFFBF5"/>
    <rect x="410" y="506" width="106" height="54" rx="8" fill="#FAF4EA" stroke="#EADFCF"/>
    <text x="422" y="526" font-size="8" font-weight="600" fill="#6F5A47">09:00</text>
    <text x="422" y="546" font-size="10" font-weight="700" fill="#2A1F18">首里城</text>
    <rect x="524" y="506" width="106" height="54" rx="8" fill="#FAF4EA" stroke="#EADFCF"/>
    <text x="536" y="526" font-size="8" font-weight="600" fill="#6F5A47">11:30</text>
    <text x="536" y="546" font-size="10" font-weight="700" fill="#2A1F18">國際通</text>
    <rect x="400" y="530" width="240" height="70" fill="url(#hz)"/>
    <rect x="410" y="536" width="220" height="36" rx="18" fill="#FFFFFF" fill-opacity="0.92" stroke="#FFFFFF"/>
    <g font-size="7" text-anchor="middle" fill="#6F5A47">
      <text x="432" y="558">聊天</text><text x="476" y="558">行程</text>
      <text x="520" y="558" fill="#A97A4A" font-weight="700">地圖</text><text x="564" y="558">收藏</text><text x="608" y="558">帳號</text>
    </g>
  </g>
  <rect x="400" y="140" width="240" height="460" rx="22" fill="none" stroke="#2A1F18" stroke-width="2"/>

  <!-- B3 收藏 before：large title + inset 112 浪費 -->
  <g clip-path="url(#b3)">
    <rect x="740" y="140" width="240" height="460" fill="#FFFBF5"/>
    <rect x="740" y="140" width="240" height="78" fill="#FFF6EA"/>
    <text x="964" y="164" font-size="13" fill="#A97A4A" text-anchor="end">⌕</text>
    <text x="754" y="206" font-size="22" font-weight="700" fill="#2A1F18">收藏</text>
    <path d="M740 218 H980" stroke="#EADFCF" stroke-width="1"/>
    <rect x="754" y="228" width="212" height="24" rx="7" fill="#FAF4EA" stroke="#EADFCF"/>
    <text x="766" y="244" font-size="9" fill="#6F5A47">搜尋收藏</text>
    <rect x="754" y="262" width="212" height="48" rx="8" fill="#FAF1F3" stroke="#F2DBE0"/>
    <text x="766" y="290" font-size="10" font-weight="700" fill="#2A1F18">牧志公設市場</text>
    <rect x="754" y="320" width="212" height="48" rx="8" fill="#F4EDE3" stroke="#E9DBC8"/>
    <text x="766" y="348" font-size="10" font-weight="700" fill="#2A1F18">首里城公園</text>
    <rect x="754" y="378" width="212" height="48" rx="8" fill="#ECF0ED" stroke="#D4DDD5"/>
    <text x="766" y="406" font-size="10" font-weight="700" fill="#2A1F18">那霸港口飯店</text>
    <!-- 112 浪費的空白 -->
    <rect x="740" y="436" width="240" height="94" fill="url(#waste)"/>
    <rect x="750" y="536" width="220" height="36" rx="18" fill="#FFFFFF" fill-opacity="0.92" stroke="#FFFFFF"/>
    <g font-size="7" text-anchor="middle" fill="#6F5A47">
      <text x="772" y="558">聊天</text><text x="816" y="558">行程</text>
      <text x="860" y="558">地圖</text><text x="904" y="558" fill="#A97A4A" font-weight="700">收藏</text><text x="948" y="558">帳號</text>
    </g>
  </g>
  <rect x="740" y="140" width="240" height="460" rx="22" fill="none" stroke="#2A1F18" stroke-width="2"/>

  <!-- BEFORE 標註 -->
  <text x="60" y="622" font-size="11" font-weight="700" fill="#C13515">SliverAppBar.large ＋ inset 寫死 16</text>
  <text x="60" y="639" font-size="10.5" fill="#6F5A47">最後一張卡 84px 壓在 tab bar 下（斜線區）</text>
  <text x="60" y="655" font-size="10.5" fill="#6F5A47">大標題另外吃掉 96pt</text>

  <text x="400" y="622" font-size="11" font-weight="700" fill="#C13515">AppBar 56 ＋ 完全沒有 inset</text>
  <text x="400" y="639" font-size="10.5" fill="#6F5A47">POI 卡 88px 被蓋住、點不到（斜線區）</text>
  <text x="400" y="655" font-size="10.5" fill="#6F5A47">day tabs 與 POI 卡各自壓縮地圖高度</text>

  <text x="740" y="622" font-size="11" font-weight="700" fill="#F48C06">SliverAppBar.large ＋ inset 寫死 112</text>
  <text x="740" y="639" font-size="10.5" fill="#6F5A47">沒破版，但 112 是猜的：實際 tab bar 高度</text>
  <text x="740" y="655" font-size="10.5" fill="#6F5A47">是 106（34pt 安全區）或 72（無安全區）→ 白留空白</text>

  <path d="M48 676 H1032" stroke="#EADFCF" stroke-width="1"/>

  <!-- ============ AFTER ============ -->
  <rect x="48" y="694" width="112" height="24" rx="12" fill="#E7F6F0"/>
  <text x="104" y="711" font-size="13" font-weight="700" fill="#06A77D" text-anchor="middle">修正後</text>
  <text x="176" y="711" font-size="12.5" fill="#6F5A47">同一個頁首規格、同一個底部淨空來源（MediaQuery 實測值）</text>

  <!-- A1 行程 -->
  <g clip-path="url(#a1)">
    <rect x="60" y="700" width="240" height="460" fill="#FFFBF5"/>
    <rect x="60" y="700" width="240" height="34" fill="#FFFBF5"/>
    <text x="74" y="722" font-size="11" font-weight="700" fill="#2A1F18">我的行程</text>
    <text x="284" y="722" font-size="12" fill="#A97A4A" text-anchor="end">＋ ⋯</text>
    <path d="M60 734 H300" stroke="#EADFCF" stroke-width="1"/>
    <rect x="74" y="744" width="212" height="24" rx="7" fill="#FAF4EA" stroke="#EADFCF"/>
    <text x="86" y="760" font-size="9" fill="#6F5A47">搜尋行程</text>
    <rect x="74" y="778" width="212" height="56" rx="8" fill="#FAF4EA" stroke="#EADFCF"/>
    <text x="86" y="808" font-size="11" font-weight="700" fill="#2A1F18">沖繩家族之旅</text>
    <rect x="74" y="844" width="212" height="56" rx="8" fill="#FAF4EA" stroke="#EADFCF"/>
    <text x="86" y="874" font-size="11" font-weight="700" fill="#2A1F18">京都紅葉</text>
    <rect x="74" y="910" width="212" height="56" rx="8" fill="#FAF4EA" stroke="#EADFCF"/>
    <text x="86" y="940" font-size="11" font-weight="700" fill="#2A1F18">釜山美食團</text>
    <rect x="74" y="976" width="212" height="56" rx="8" fill="#FAF4EA" stroke="#EADFCF"/>
    <text x="86" y="1006" font-size="11" font-weight="700" fill="#2A1F18">北海道滑雪</text>
    <rect x="74" y="1042" width="212" height="56" rx="8" fill="#FAF4EA" stroke="#EADFCF"/>
    <text x="86" y="1072" font-size="11" font-weight="700" fill="#2A1F18">台南小吃</text>
    <rect x="70" y="1096" width="220" height="36" rx="18" fill="#FFFFFF" fill-opacity="0.92" stroke="#FFFFFF"/>
    <g font-size="7" text-anchor="middle" fill="#6F5A47">
      <text x="92" y="1118">聊天</text><text x="136" y="1118" fill="#A97A4A" font-weight="700">行程</text>
      <text x="180" y="1118">地圖</text><text x="224" y="1118">收藏</text><text x="268" y="1118">帳號</text>
    </g>
  </g>
  <rect x="60" y="700" width="240" height="460" rx="22" fill="none" stroke="#2A1F18" stroke-width="2"/>

  <!-- A2 地圖 -->
  <g clip-path="url(#a2)">
    <rect x="400" y="700" width="240" height="460" fill="#FFFBF5"/>
    <rect x="400" y="700" width="240" height="34" fill="#FFFBF5"/>
    <text x="416" y="722" font-size="11" font-weight="700" fill="#2A1F18">沖繩家族旅行</text>
    <text x="624" y="722" font-size="12" fill="#A97A4A" text-anchor="end">⇄</text>
    <path d="M400 734 H640" stroke="#EADFCF" stroke-width="1"/>
    <!-- 地圖滿版到底 -->
    <rect x="400" y="734" width="240" height="426" fill="url(#mapTex)"/>
    <circle cx="470" cy="820" r="11" fill="#EF4444" stroke="#FFFFFF" stroke-width="2"/>
    <text x="470" y="824" font-size="9" font-weight="700" fill="#FFFFFF" text-anchor="middle">1</text>
    <circle cx="570" cy="920" r="11" fill="#EF4444" stroke="#FFFFFF" stroke-width="2"/>
    <text x="570" y="924" font-size="9" font-weight="700" fill="#FFFFFF" text-anchor="middle">2</text>
    <circle cx="500" cy="1000" r="11" fill="#EF4444" stroke="#FFFFFF" stroke-width="2"/>
    <text x="500" y="1004" font-size="9" font-weight="700" fill="#FFFFFF" text-anchor="middle">3</text>
    <path d="M470 820 Q530 860 570 920 Q535 960 500 1000" stroke="#EF4444" stroke-width="3" fill="none"/>
    <!-- day tabs 浮層（實底 pill） -->
    <rect x="412" y="742" width="42" height="20" rx="10" fill="#A97A4A"/>
    <text x="433" y="756" font-size="8" font-weight="600" fill="#FFFFFF" text-anchor="middle">總覽</text>
    <rect x="460" y="742" width="56" height="20" rx="10" fill="#FFFBF5" stroke="#EADFCF"/>
    <text x="490" y="756" font-size="8" font-weight="600" fill="#2A1F18" text-anchor="middle">DAY 01</text>
    <rect x="522" y="742" width="56" height="20" rx="10" fill="#FFFBF5" stroke="#EADFCF"/>
    <text x="552" y="756" font-size="8" font-weight="600" fill="#2A1F18" text-anchor="middle">DAY 02</text>
    <circle cx="616" cy="786" r="13" fill="#FFFFFF" stroke="#EADFCF"/>
    <path d="M616 780 v12 M610 786 h12" stroke="#A97A4A" stroke-width="1.6" stroke-linecap="round"/>
    <!-- POI 卡浮在 tab bar 上方 -->
    <rect x="410" y="1030" width="106" height="54" rx="8" fill="#FAF4EA" stroke="#EADFCF"/>
    <text x="422" y="1050" font-size="8" font-weight="600" fill="#6F5A47">09:00</text>
    <text x="422" y="1070" font-size="10" font-weight="700" fill="#2A1F18">首里城</text>
    <rect x="524" y="1030" width="106" height="54" rx="8" fill="#FAF4EA" stroke="#EADFCF"/>
    <text x="536" y="1050" font-size="8" font-weight="600" fill="#6F5A47">11:30</text>
    <text x="536" y="1070" font-size="10" font-weight="700" fill="#2A1F18">國際通</text>
    <!-- 玻璃 tab bar：底下是地圖 -->
    <rect x="410" y="1096" width="220" height="36" rx="18" fill="url(#mapTexBlur)"/>
    <rect x="410" y="1096" width="220" height="36" rx="18" fill="#FFFFFF" fill-opacity="0.66" stroke="#FFFFFF"/>
    <g font-size="7" text-anchor="middle" fill="#6F5A47">
      <text x="432" y="1118">聊天</text><text x="476" y="1118">行程</text>
      <text x="520" y="1118" fill="#A97A4A" font-weight="700">地圖</text><text x="564" y="1118">收藏</text><text x="608" y="1118">帳號</text>
    </g>
  </g>
  <rect x="400" y="700" width="240" height="460" rx="22" fill="none" stroke="#2A1F18" stroke-width="2"/>

  <!-- A3 收藏 -->
  <g clip-path="url(#a3)">
    <rect x="740" y="700" width="240" height="460" fill="#FFFBF5"/>
    <rect x="740" y="700" width="240" height="34" fill="#FFFBF5"/>
    <text x="754" y="722" font-size="11" font-weight="700" fill="#2A1F18">收藏</text>
    <text x="964" y="722" font-size="12" fill="#A97A4A" text-anchor="end">⌕</text>
    <path d="M740 734 H980" stroke="#EADFCF" stroke-width="1"/>
    <rect x="754" y="744" width="212" height="24" rx="7" fill="#FAF4EA" stroke="#EADFCF"/>
    <text x="766" y="760" font-size="9" fill="#6F5A47">搜尋收藏</text>
    <rect x="754" y="778" width="212" height="48" rx="8" fill="#FAF1F3" stroke="#F2DBE0"/>
    <text x="766" y="806" font-size="10" font-weight="700" fill="#2A1F18">牧志公設市場</text>
    <rect x="754" y="836" width="212" height="48" rx="8" fill="#F4EDE3" stroke="#E9DBC8"/>
    <text x="766" y="864" font-size="10" font-weight="700" fill="#2A1F18">首里城公園</text>
    <rect x="754" y="894" width="212" height="48" rx="8" fill="#ECF0ED" stroke="#D4DDD5"/>
    <text x="766" y="922" font-size="10" font-weight="700" fill="#2A1F18">那霸港口飯店</text>
    <rect x="754" y="952" width="212" height="48" rx="8" fill="#FAF1F3" stroke="#F2DBE0"/>
    <text x="766" y="980" font-size="10" font-weight="700" fill="#2A1F18">琉球茶房</text>
    <rect x="754" y="1010" width="212" height="48" rx="8" fill="#F4EDE3" stroke="#E9DBC8"/>
    <text x="766" y="1038" font-size="10" font-weight="700" fill="#2A1F18">美麗海水族館</text>
    <rect x="750" y="1096" width="220" height="36" rx="18" fill="#FFFFFF" fill-opacity="0.92" stroke="#FFFFFF"/>
    <g font-size="7" text-anchor="middle" fill="#6F5A47">
      <text x="772" y="1118">聊天</text><text x="816" y="1118">行程</text>
      <text x="860" y="1118">地圖</text><text x="904" y="1118" fill="#A97A4A" font-weight="700">收藏</text><text x="948" y="1118">帳號</text>
    </g>
  </g>
  <rect x="740" y="700" width="240" height="460" rx="22" fill="none" stroke="#2A1F18" stroke-width="2"/>

  <!-- AFTER 標註 -->
  <text x="60" y="1182" font-size="11" font-weight="700" fill="#06A77D">TpRootScrollScaffold · inline 56</text>
  <text x="60" y="1199" font-size="10.5" fill="#6F5A47">最後一張卡完整露出；多看到一張</text>

  <text x="400" y="1182" font-size="11" font-weight="700" fill="#06A77D">Stack 浮層 · 地圖滿版</text>
  <text x="400" y="1199" font-size="10.5" fill="#6F5A47">玻璃底下是真的地圖，POI 卡浮在其上</text>

  <text x="740" y="1182" font-size="11" font-weight="700" fill="#06A77D">TpRootScrollScaffold · inline 56</text>
  <text x="740" y="1199" font-size="10.5" fill="#6F5A47">不再浪費 112 的猜測空白；多看到兩張</text>
</svg>
